<svg width="599" height="163" viewBox="0 0 599 163" fill="none" xmlns="http://www.w3.org/2000/svg">
<path d="M105.298 5.66584L129.031 12.0162L145.854 27.1436L91.0466 130.633L50.4913 109.156L105.298 5.66584Z" fill="#EBF765"/>
<g filter="url(#filter0_d_5_2)">
<path d="M0.80645 77.3941L22.6801 66.9292L34.3431 52.0339L94.732 123.094L85.333 139.999L49.1799 141.364L0.80645 77.3941Z" fill="white"/>
<path d="M1.57456 77.5809L22.8959 67.3802L23.0016 67.3297L23.0738 67.2374L34.3589 52.8247L94.1267 123.154L85.0328 139.51L49.4215 140.854L1.57456 77.5809Z" stroke="url(#paint0_linear_5_2)" stroke-opacity="0.18"/>
</g>
<path d="M147.845 143.148C142.537 143.148 137.958 141.976 134.108 139.633C130.283 137.266 127.33 133.966 125.249 129.734C123.193 125.478 122.165 120.528 122.165 114.885C122.165 109.242 123.193 104.268 125.249 99.9645C127.33 95.6366 130.223 92.2652 133.929 89.8502C137.659 87.4112 142.011 86.1918 146.984 86.1918C149.854 86.1918 152.687 86.67 155.485 87.6264C158.282 88.5829 160.829 90.1371 163.124 92.2891C165.42 94.4172 167.249 97.2386 168.612 100.754C169.975 104.268 170.656 108.596 170.656 113.737V117.324H128.19V110.007H162.048C162.048 106.899 161.427 104.125 160.183 101.686C158.964 99.2472 157.218 97.3223 154.947 95.9116C152.699 94.5008 150.045 93.7955 146.984 93.7955C143.613 93.7955 140.696 94.6323 138.233 96.3061C135.794 97.956 133.917 100.108 132.602 102.762C131.287 105.416 130.629 108.262 130.629 111.298V116.176C130.629 120.337 131.347 123.864 132.781 126.757C134.24 129.626 136.26 131.814 138.843 133.32C141.425 134.803 144.426 135.544 147.845 135.544C150.069 135.544 152.077 135.233 153.871 134.612C155.688 133.966 157.254 133.009 158.569 131.742C159.884 130.451 160.901 128.849 161.618 126.936L169.795 129.232C168.935 132.005 167.488 134.444 165.456 136.548C163.423 138.629 160.913 140.255 157.924 141.426C154.935 142.574 151.575 143.148 147.845 143.148ZM204.335 143.148C199.744 143.148 195.691 141.988 192.176 139.669C188.661 137.325 185.911 134.026 183.927 129.77C181.942 125.489 180.95 120.432 180.95 114.598C180.95 108.812 181.942 103.79 183.927 99.5341C185.911 95.2779 188.673 91.9902 192.212 89.6708C195.751 87.3515 199.84 86.1918 204.478 86.1918C208.065 86.1918 210.898 86.7895 212.979 87.9851C215.083 89.1567 216.685 90.4957 217.785 92.0021C218.909 93.4846 219.781 94.7041 220.403 95.6605H221.12V68.5455H229.585V142H221.407V133.536H220.403C219.781 134.54 218.897 135.807 217.749 137.337C216.601 138.844 214.963 140.195 212.835 141.39C210.707 142.562 207.874 143.148 204.335 143.148ZM205.483 135.544C208.878 135.544 211.747 134.659 214.091 132.89C216.434 131.097 218.215 128.622 219.435 125.466C220.654 122.285 221.264 118.615 221.264 114.455C221.264 110.342 220.666 106.743 219.471 103.659C218.275 100.55 216.506 98.1353 214.162 96.4137C211.819 94.6682 208.926 93.7955 205.483 93.7955C201.896 93.7955 198.907 94.716 196.516 96.5572C194.149 98.3744 192.367 100.849 191.172 103.982C190 107.09 189.414 110.581 189.414 114.455C189.414 118.376 190.012 121.939 191.208 125.143C192.427 128.323 194.221 130.857 196.588 132.746C198.979 134.612 201.944 135.544 205.483 135.544ZM262.474 143.291C258.983 143.291 255.815 142.634 252.97 141.319C250.124 139.98 247.865 138.055 246.191 135.544C244.517 133.009 243.68 129.949 243.68 126.362C243.68 123.206 244.302 120.648 245.545 118.687C246.789 116.702 248.451 115.148 250.531 114.024C252.611 112.9 254.907 112.063 257.417 111.514C259.952 110.94 262.498 110.485 265.057 110.151C268.404 109.72 271.118 109.397 273.199 109.182C275.303 108.943 276.833 108.549 277.789 107.999C278.77 107.449 279.26 106.492 279.26 105.129V104.842C279.26 101.304 278.292 98.5538 276.355 96.5931C274.442 94.6323 271.537 93.652 267.639 93.652C263.598 93.652 260.43 94.5367 258.135 96.3061C255.839 98.0755 254.225 99.9645 253.293 101.973L245.259 99.1037C246.693 95.7562 248.606 93.1499 250.997 91.2848C253.412 89.3958 256.042 88.0807 258.888 87.3395C261.757 86.5743 264.579 86.1918 267.352 86.1918C269.122 86.1918 271.154 86.407 273.45 86.8374C275.769 87.2439 278.005 88.0927 280.157 89.3839C282.333 90.6751 284.138 92.6238 285.572 95.2301C287.007 97.8364 287.724 101.327 287.724 105.703V142H279.26V134.54H278.83C278.256 135.735 277.299 137.015 275.96 138.377C274.621 139.74 272.84 140.9 270.616 141.857C268.392 142.813 265.679 143.291 262.474 143.291ZM263.766 135.688C267.113 135.688 269.935 135.03 272.23 133.715C274.549 132.4 276.295 130.702 277.467 128.622C278.662 126.542 279.26 124.354 279.26 122.058V114.311C278.901 114.741 278.112 115.136 276.893 115.495C275.697 115.829 274.31 116.128 272.732 116.391C271.178 116.63 269.66 116.846 268.177 117.037C266.719 117.204 265.535 117.348 264.626 117.467C262.427 117.754 260.37 118.221 258.457 118.866C256.568 119.488 255.038 120.432 253.866 121.7C252.719 122.943 252.145 124.641 252.145 126.793C252.145 129.734 253.233 131.957 255.409 133.464C257.609 134.946 260.394 135.688 263.766 135.688ZM311.638 108.859V142H303.174V86.9091H311.351V95.5171H312.069C313.36 92.7195 315.321 90.4718 317.951 88.7742C320.581 87.0526 323.976 86.1918 328.137 86.1918C331.867 86.1918 335.131 86.9569 337.929 88.4872C340.726 89.9936 342.902 92.2891 344.456 95.3736C346.01 98.4342 346.788 102.308 346.788 106.994V142H338.323V107.568C338.323 103.24 337.199 99.8689 334.952 97.4538C332.704 95.0149 329.619 93.7955 325.698 93.7955C322.996 93.7955 320.581 94.3813 318.453 95.5529C316.349 96.7246 314.687 98.4342 313.468 100.682C312.248 102.929 311.638 105.655 311.638 108.859ZM386.214 86.9091V94.0824H357.664V86.9091H386.214ZM365.985 73.7102H374.45V126.219C374.45 128.61 374.796 130.403 375.49 131.599C376.207 132.77 377.116 133.559 378.216 133.966C379.339 134.348 380.523 134.54 381.766 134.54C382.699 134.54 383.464 134.492 384.062 134.396C384.66 134.277 385.138 134.181 385.496 134.109L387.218 141.713C386.644 141.928 385.843 142.143 384.815 142.359C383.787 142.598 382.484 142.717 380.906 142.717C378.514 142.717 376.171 142.203 373.876 141.175C371.604 140.147 369.715 138.581 368.209 136.477C366.726 134.372 365.985 131.718 365.985 128.514V73.7102Z" fill="white"/>
<defs>
<filter id="filter0_d_5_2" x="0.80645" y="42.0339" width="104.926" height="99.3298" filterUnits="userSpaceOnUse" color-interpolation-filters="sRGB">
<feFlood flood-opacity="0" result="BackgroundImageFix"/>
<feColorMatrix in="SourceAlpha" type="matrix" values="0 0 0 0 0 0 0 0 0 0 0 0 0 0 0 0 0 0 127 0" result="hardAlpha"/>
<feOffset dx="8" dy="-7"/>
<feGaussianBlur stdDeviation="1.5"/>
<feComposite in2="hardAlpha" operator="out"/>
<feColorMatrix type="matrix" values="0 0 0 0 0 0 0 0 0 0 0 0 0 0 0 0 0 0 0.34 0"/>
<feBlend mode="normal" in2="BackgroundImageFix" result="effect1_dropShadow_5_2"/>
<feBlend mode="normal" in="SourceGraphic" in2="effect1_dropShadow_5_2" result="shape"/>
</filter>
<linearGradient id="paint0_linear_5_2" x1="19.6914" y1="63.1135" x2="80.5609" y2="143.608" gradientUnits="userSpaceOnUse">
<stop stop-color="#8E8282"/>
<stop offset="0.26" stop-color="#7D7171"/>
<stop offset="1" stop-color="#140606"/>
</linearGradient>
</defs>
</svg>
